<svg xmlns="http://www.w3.org/2000/svg" width="20" height="20" viewBox="0 0 48 48"><g><circle cx="24" cy="24" r="20" fill="#fff"/><path d="M43.6 20.5H24v7.1h11.2c-1.1 3.1-4.1 5.3-7.2 5.3-4.3 0-7.8-3.5-7.8-7.8s3.5-7.8 7.8-7.8c1.9 0 3.6.7 5 1.8l5.3-5.3C34.2 10.2 29.4 8 24 8 14.6 8 7 15.6 7 25s7.6 17 17 17 17-7.6 17-17c0-1.1-.1-2.1-.4-3.1z" fill="#4285F4"/><path d="M24 44c5.4 0 10.2-2.2 13.6-5.7l-6.3-5.2c-1.7 1.2-3.9 2-6.3 2-4.8 0-8.8-3.2-10.2-7.5H7.6v4.7C11 39.8 17 44 24 44z" fill="#34A853"/><path d="M13.8 27.6c-.4-1.2-.6-2.4-.6-3.6s.2-2.4.6-3.6v-4.7H7.6C6.6 18.9 6 21.4 6 24s.6 5.1 1.6 7.4l6.2-3.8z" fill="#FBBC05"/><path d="M24 16.2c2.6 0 4.9.9 6.7 2.7l5-5C33.8 10.7 29.2 8.5 24 8.5c-7 0-13 4.2-16.4 10.3l6.2 4.8c1.4-4.3 5.4-7.4 10.2-7.4z" fill="#EA4335"/></g></svg>